<?xml version="1.0" encoding="UTF-8" standalone="no"?>
<svg
   fill="none"
   viewBox="0 0 24 24"
   id="Play-Pause--Streamline-Sharp-Material"
   height="24"
   width="24"
   version="1.1"
   sodipodi:docname="play-pause.svg"
   inkscape:version="1.4 (e7c3feb100, 2024-10-09)"
   xmlns:inkscape="http://www.inkscape.org/namespaces/inkscape"
   xmlns:sodipodi="http://sodipodi.sourceforge.net/DTD/sodipodi-0.dtd"
   xmlns="http://www.w3.org/2000/svg"
   xmlns:svg="http://www.w3.org/2000/svg">
  <defs
     id="defs1" />
  <sodipodi:namedview
     id="namedview1"
     pagecolor="#505050"
     bordercolor="#ffffff"
     borderopacity="1"
     inkscape:showpageshadow="0"
     inkscape:pageopacity="0"
     inkscape:pagecheckerboard="1"
     inkscape:deskcolor="#505050"
     inkscape:zoom="20.506097"
     inkscape:cx="6.412727"
     inkscape:cy="11.264943"
     inkscape:window-width="1745"
     inkscape:window-height="905"
     inkscape:window-x="0"
     inkscape:window-y="0"
     inkscape:window-maximized="1"
     inkscape:current-layer="Play-Pause--Streamline-Sharp-Material"
     showguides="true" />
  <desc
     id="desc1">
    Play Pause Streamline Icon: https://streamlinehq.com
  </desc>
  <path
     style="fill:#ffffff;stroke-width:0.0536646"
     d="M -14.849704,11.869284 V 5.9178635 h 1.201638 1.201635 v 5.9514205 5.951417 h -1.201635 -1.201638 z"
     id="path2" />
  <path
     style="fill:#ffffff;stroke-width:0.0290356"
     d="M 11.363525,5.4304144 V 2.5300679 l 0.178125,0.1053536 c 0.09796,0.057944 1.199251,0.7082599 2.447294,1.445147 1.248041,0.7368864 2.269168,1.344317 2.269168,1.3498465 0,0.00553 -1.021127,0.6129596 -2.269168,1.3498463 -1.248043,0.7368869 -2.349325,1.3872029 -2.447294,1.445147 l -0.178125,0.1053523 z"
     id="path4" />
  <path
     id="path13"
     style="fill:#ffffff;stroke-width:1.25066"
     d="M 12,4 A 8,8 0 0 1 12.409375,4.0109375 8,8 0 0 0 12,4 Z m 0,0 A 8,8 0 0 0 10.801563,4.09375 8,8 0 0 0 10.4375,4.1734375 8,8 0 0 0 9.6265625,4.36875 8,8 0 0 0 9.203125,4.5265625 8,8 0 0 0 8.5171876,4.8109375 8,8 0 0 0 8.0765625,5.0515625 8,8 0 0 0 7.4765625,5.41875 8,8 0 0 0 7.0703124,5.7234375 8,8 0 0 0 6.5375,6.178125 8,8 0 0 0 6.178125,6.5375 8,8 0 0 0 5.7234375,7.0703124 8,8 0 0 0 5.41875,7.4765625 a 8,8 0 0 0 -0.3671875,0.6 A 8,8 0 0 0 4.8109375,8.5171876 8,8 0 0 0 4.5265625,9.203125 8,8 0 0 0 4.36875,9.6265625 8,8 0 0 0 4.1734375,10.4375 8,8 0 0 0 4.09375,10.801563 8,8 0 0 0 4,12 a 8,8 0 0 0 0.09375,1.198437 8,8 0 0 0 0.079687,0.364063 8,8 0 0 0 0.1953125,0.810937 8,8 0 0 0 0.1578124,0.423439 8,8 0 0 0 0.2843751,0.685936 8,8 0 0 0 0.2406249,0.440625 8,8 0 0 0 0.3671875,0.6 8,8 0 0 0 0.3046876,0.40625 8,8 0 0 0 0.4546874,0.532813 8,8 0 0 0 0.359375,0.359376 8,8 0 0 0 0.5328125,0.454687 8,8 0 0 0 0.40625,0.304687 8,8 0 0 0 0.6,0.367187 8,8 0 0 0 0.4406251,0.240625 8,8 0 0 0 0.6859374,0.284375 8,8 0 0 0 0.4234375,0.157813 8,8 0 0 0 0.8109371,0.195313 8,8 0 0 0 0.364063,0.07969 A 8,8 0 0 0 12,20 a 8,8 0 0 0 1.198437,-0.09375 8,8 0 0 0 0.364063,-0.07969 8,8 0 0 0 0.810937,-0.195313 8,8 0 0 0 0.423439,-0.157812 8,8 0 0 0 0.685936,-0.284376 8,8 0 0 0 0.440625,-0.240624 8,8 0 0 0 0.6,-0.367188 8,8 0 0 0 0.40625,-0.304687 8,8 0 0 0 0.532813,-0.454687 8,8 0 0 0 0.359376,-0.359375 8,8 0 0 0 0.454687,-0.532814 8,8 0 0 0 0.304687,-0.406249 8,8 0 0 0 0.367187,-0.6 8,8 0 0 0 0.240625,-0.440624 8,8 0 0 0 0.284375,-0.685938 8,8 0 0 0 0.157813,-0.423438 8,8 0 0 0 0.195313,-0.810937 8,8 0 0 0 0.07969,-0.364063 A 8,8 0 0 0 20,12 H 18.4 A 6.4,6.4 0 0 1 12,18.4 6.4,6.4 0 0 1 5.6,12 6.4,6.4 0 0 1 12,5.6 Z m 8,8 A 8,8 0 0 0 19.989062,11.590625 8,8 0 0 1 20,12 Z M 12.973437,4.0625 A 8,8 0 0 1 13.226563,4.0953124 8,8 0 0 0 12.973437,4.0625 Z M 13.3375,4.114063 A 8,8 0 0 1 13.63125,4.16875 8,8 0 0 0 13.3375,4.114063 Z m 0.417187,0.082812 A 8,8 0 0 1 14.0125,4.257813 8,8 0 0 0 13.754687,4.196875 Z m 0.414063,0.1046875 a 8,8 0 0 1 0.265625,0.079687 8,8 0 0 0 -0.265625,-0.079687 z m 0.35625,0.109375 a 8,8 0 0 1 0.267188,0.09375 A 8,8 0 0 0 14.525,4.4109375 Z M 14.965625,4.571875 A 8,8 0 0 1 15.1625,4.654687 8,8 0 0 0 14.965625,4.571875 Z m 0.364062,0.15625 a 8,8 0 0 1 0.196876,0.09375 8,8 0 0 0 -0.196876,-0.09375 z m 0.371876,0.18125 a 8,8 0 0 1 0.2,0.109375 8,8 0 0 0 -0.2,-0.109375 z M 16.045313,5.1 A 8,8 0 0 1 16.253124,5.2265625 8,8 0 0 0 16.045313,5.1 Z m 0.353124,0.21875 A 8,8 0 0 1 16.60625,5.4625 8,8 0 0 0 16.398437,5.31875 Z m 0.329687,0.2296875 A 8,8 0 0 1 16.9375,5.7078124 8,8 0 0 0 16.728124,5.5484375 Z M 17.05,5.796875 A 8,8 0 0 1 17.254687,5.9703124 8,8 0 0 0 17.05,5.796875 Z m 0.979687,0.9484374 A 8,8 0 0 1 18.203124,6.95 8,8 0 0 0 18.029687,6.7453124 Z M 18.292188,7.0625 A 8,8 0 0 1 18.451563,7.271875 8,8 0 0 0 18.292188,7.0625 Z M 18.5375,7.39375 A 8,8 0 0 1 18.68125,7.6015625 8,8 0 0 0 18.5375,7.39375 Z m 0.235937,0.353125 A 8,8 0 0 1 18.9,7.9546876 8,8 0 0 0 18.773437,7.746875 Z m 0.207813,0.3515625 a 8,8 0 0 1 0.109375,0.2 8,8 0 0 0 -0.109375,-0.2 z m 0.196874,0.375 a 8,8 0 0 1 0.09375,0.1968749 8,8 0 0 0 -0.09375,-0.1968749 z M 19.345313,8.8375 a 8,8 0 0 1 0.08281,0.196875 8,8 0 0 0 -0.08281,-0.196875 z m 0.15,0.3703124 A 8,8 0 0 1 19.589063,9.475 8,8 0 0 0 19.495313,9.2078124 Z M 19.61875,9.565625 A 8,8 0 0 1 19.69844,9.83125 8,8 0 0 0 19.61875,9.565625 Z M 19.742188,9.9875 a 8,8 0 0 1 0.06093,0.257813 8,8 0 0 0 -0.06093,-0.257813 z m 0.08906,0.38125 a 8,8 0 0 1 0.05468,0.29375 8,8 0 0 0 -0.05468,-0.29375 z m 0.07344,0.404687 a 8,8 0 0 1 0.03281,0.253126 8,8 0 0 0 -0.03281,-0.253126 z" />
  <path
     id="path13-9"
     style="fill:#ffffff;stroke-width:1.09433"
     d="M 12,5 A 7,7 0 0 1 12.358203,5.00957 7,7 0 0 0 12,5 Z m 0,0 A 7,7 0 0 0 10.951368,5.082031 7,7 0 0 0 10.632812,5.151757 7,7 0 0 0 9.923242,5.3226554 7,7 0 0 0 9.552734,5.4607414 7,7 0 0 0 8.952539,5.7095695 7,7 0 0 0 8.566993,5.9201163 7,7 0 0 0 8.041992,6.2414054 7,7 0 0 0 7.686523,6.508007 7,7 0 0 0 7.220313,6.9058585 7,7 0 0 0 6.905859,7.2203117 7,7 0 0 0 6.508007,7.6865225 7,7 0 0 0 6.241406,8.0419913 7,7 0 0 0 5.920117,8.5669913 7,7 0 0 0 5.709571,8.9525387 7,7 0 0 0 5.460742,9.552734 7,7 0 0 0 5.322656,9.923242 7,7 0 0 0 5.151757,10.632812 7,7 0 0 0 5.082027,10.951367 7,7 0 0 0 5,12 a 7,7 0 0 0 0.08203,1.048632 7,7 0 0 0 0.06973,0.318556 7,7 0 0 0 0.170898,0.709569 7,7 0 0 0 0.138086,0.37051 7,7 0 0 0 0.248828,0.600194 7,7 0 0 0 0.210547,0.385546 7,7 0 0 0 0.321289,0.525 7,7 0 0 0 0.266602,0.355469 7,7 0 0 0 0.397851,0.466211 7,7 0 0 0 0.314453,0.314454 7,7 0 0 0 0.466212,0.397852 7,7 0 0 0 0.355468,0.266601 7,7 0 0 0 0.525,0.321288 7,7 0 0 0 0.385547,0.210547 7,7 0 0 0 0.600195,0.248828 7,7 0 0 0 0.370508,0.138087 7,7 0 0 0 0.70957,0.170899 7,7 0 0 0 0.318555,0.06973 A 7,7 0 0 0 12,19 a 7,7 0 0 0 1.048632,-0.08203 7,7 0 0 0 0.318555,-0.06973 7,7 0 0 0 0.70957,-0.170899 7,7 0 0 0 0.370509,-0.138085 7,7 0 0 0 0.600194,-0.248829 7,7 0 0 0 0.385547,-0.210546 7,7 0 0 0 0.525,-0.32129 7,7 0 0 0 0.355469,-0.266601 7,7 0 0 0 0.466211,-0.397851 7,7 0 0 0 0.314454,-0.314453 7,7 0 0 0 0.397852,-0.466212 7,7 0 0 0 0.266601,-0.355468 7,7 0 0 0 0.321288,-0.525 7,7 0 0 0 0.210547,-0.385546 7,7 0 0 0 0.248828,-0.600196 7,7 0 0 0 0.138087,-0.370508 7,7 0 0 0 0.170899,-0.70957 7,7 0 0 0 0.06973,-0.318555 A 7,7 0 0 0 19,12 H 17.6 A 5.6,5.6 0 0 1 12,17.6 5.6,5.6 0 0 1 6.4,12 5.6,5.6 0 0 1 12,6.4 Z m 7,7 A 7,7 0 0 0 18.990429,11.641797 7,7 0 0 1 19,12 Z M 12.851757,5.0546875 a 7,7 0 0 1 0.221486,0.028711 7,7 0 0 0 -0.221486,-0.028711 z m 0.318555,0.045118 a 7,7 0 0 1 0.257032,0.047851 7,7 0 0 0 -0.257032,-0.047851 z m 0.365039,0.07246 a 7,7 0 0 1 0.225586,0.053321 7,7 0 0 0 -0.225586,-0.053321 z m 0.362305,0.091602 a 7,7 0 0 1 0.232422,0.069726 7,7 0 0 0 -0.232422,-0.069726 z m 0.311719,0.095703 a 7,7 0 0 1 0.233789,0.082031 7,7 0 0 0 -0.233789,-0.082031 z m 0.385547,0.1408203 a 7,7 0 0 1 0.172266,0.072461 7,7 0 0 0 -0.172266,-0.072461 z m 0.318554,0.1367188 a 7,7 0 0 1 0.172267,0.082031 7,7 0 0 0 -0.172267,-0.082031 z m 0.325392,0.1585937 a 7,7 0 0 1 0.175,0.095703 7,7 0 0 0 -0.175,-0.095703 z M 15.539649,5.9625 A 7,7 0 0 1 15.721483,6.0732422 7,7 0 0 0 15.539649,5.9625 Z m 0.308983,0.1914062 a 7,7 0 0 1 0.181837,0.1257813 7,7 0 0 0 -0.181837,-0.1257813 z m 0.288476,0.2009766 a 7,7 0 0 1 0.183204,0.139453 7,7 0 0 0 -0.183204,-0.139453 z M 16.41875,6.5722656 A 7,7 0 0 1 16.597851,6.7240234 7,7 0 0 0 16.41875,6.5722656 Z m 0.857226,0.8298827 A 7,7 0 0 1 17.427734,7.58125 7,7 0 0 0 17.275976,7.4021483 Z m 0.229689,0.2775392 a 7,7 0 0 1 0.139453,0.1832031 7,7 0 0 0 -0.139453,-0.1832031 z m 0.214648,0.2898437 a 7,7 0 0 1 0.125781,0.181836 7,7 0 0 0 -0.125781,-0.181836 z m 0.206444,0.3089844 a 7,7 0 0 1 0.110743,0.181836 7,7 0 0 0 -0.110743,-0.181836 z m 0.181837,0.3076172 a 7,7 0 0 1 0.0957,0.175 7,7 0 0 0 -0.0957,-0.175 z m 0.172265,0.328125 a 7,7 0 0 1 0.08203,0.1722652 7,7 0 0 0 -0.08203,-0.1722652 z m 0.14629,0.3185542 a 7,7 0 0 1 0.07246,0.172266 7,7 0 0 0 -0.07246,-0.172266 z m 0.13125,0.324024 a 7,7 0 0 1 0.08203,0.233789 7,7 0 0 0 -0.08203,-0.233789 z m 0.108007,0.313086 a 7,7 0 0 1 0.06973,0.232422 7,7 0 0 0 -0.06973,-0.232422 z m 0.108008,0.36914 a 7,7 0 0 1 0.05331,0.225587 7,7 0 0 0 -0.05331,-0.225587 z m 0.07793,0.333594 a 7,7 0 0 1 0.04785,0.257031 7,7 0 0 0 -0.04785,-0.257031 z m 0.06426,0.354101 a 7,7 0 0 1 0.02871,0.221486 7,7 0 0 0 -0.02871,-0.221486 z" />
  <path
     d="M -33.689656,5.6551723 V 17.655172 h 12 V 5.6551723 Z"
     style="fill:#ffffff;stroke-width:1.99999"
     id="path23-5" />
</svg>
